o 
v 0 10.999999977648258 2.250000089406967
v 0 10.499999988824129 2.250000089406967
v 0.6952882566169194 10.999999977648258 2.139877251779126
v 0 10.499999988824129 2.250000089406967
v 0.6952882566169194 10.499999988824129 2.139877251779126
v 0.6952882566169194 10.999999977648258 2.139877251779126
v 0 10.499999988824129 2.250000089406967
v 0 10 2.250000089406967
v 0.6952882566169194 10.499999988824129 2.139877251779126
v 0 10 2.250000089406967
v 0.6952882566169194 10 2.139877251779126
v 0.6952882566169194 10.499999988824129 2.139877251779126
v 0 10 2.250000089406967
v 0 9.500000011175871 2.250000089406967
v 0.6952882566169194 10 2.139877251779126
v 0 9.500000011175871 2.250000089406967
v 0.6952882566169194 9.500000011175871 2.139877251779126
v 0.6952882566169194 10 2.139877251779126
v 0 9.500000011175871 2.250000089406967
v 0 9.000000022351742 2.250000089406967
v 0.6952882566169194 9.500000011175871 2.139877251779126
v 0 9.000000022351742 2.250000089406967
v 0.6952882566169194 9.000000022351742 2.139877251779126
v 0.6952882566169194 9.500000011175871 2.139877251779126
v 0.6952882566169194 10.999999977648258 2.139877251779126
v 0.6952882566169194 10.499999988824129 2.139877251779126
v 1.3225168944405254 10.999999977648258 1.8202883871510949
v 0.6952882566169194 10.499999988824129 2.139877251779126
v 1.3225168944405254 10.499999988824129 1.8202883871510949
v 1.3225168944405254 10.999999977648258 1.8202883871510949
v 0.6952882566169194 10.499999988824129 2.139877251779126
v 0.6952882566169194 10 2.139877251779126
v 1.3225168944405254 10.499999988824129 1.8202883871510949
v 0.6952882566169194 10 2.139877251779126
v 1.3225168944405254 10 1.8202883871510949
v 1.3225168944405254 10.499999988824129 1.8202883871510949
v 0.6952882566169194 10 2.139877251779126
v 0.6952882566169194 9.500000011175871 2.139877251779126
v 1.3225168944405254 10 1.8202883871510949
v 0.6952882566169194 9.500000011175871 2.139877251779126
v 1.3225168944405254 9.500000011175871 1.8202883871510949
v 1.3225168944405254 10 1.8202883871510949
v 0.6952882566169194 9.500000011175871 2.139877251779126
v 0.6952882566169194 9.000000022351742 2.139877251779126
v 1.3225168944405254 9.500000011175871 1.8202883871510949
v 0.6952882566169194 9.000000022351742 2.139877251779126
v 1.3225168944405254 9.000000022351742 1.8202883871510949
v 1.3225168944405254 9.500000011175871 1.8202883871510949
v 1.3225168944405254 10.999999977648258 1.8202883871510949
v 1.3225168944405254 10.499999988824129 1.8202883871510949
v 1.8202883871510949 10.999999977648258 1.3225168944405254
v 1.3225168944405254 10.499999988824129 1.8202883871510949
v 1.8202883871510949 10.499999988824129 1.3225168944405254
v 1.8202883871510949 10.999999977648258 1.3225168944405254
v 1.3225168944405254 10.499999988824129 1.8202883871510949
v 1.3225168944405254 10 1.8202883871510949
v 1.8202883871510949 10.499999988824129 1.3225168944405254
v 1.3225168944405254 10 1.8202883871510949
v 1.8202883871510949 10 1.3225168944405254
v 1.8202883871510949 10.499999988824129 1.3225168944405254
v 1.3225168944405254 10 1.8202883871510949
v 1.3225168944405254 9.500000011175871 1.8202883871510949
v 1.8202883871510949 10 1.3225168944405254
v 1.3225168944405254 9.500000011175871 1.8202883871510949
v 1.8202883871510949 9.500000011175871 1.3225168944405254
v 1.8202883871510949 10 1.3225168944405254
v 1.3225168944405254 9.500000011175871 1.8202883871510949
v 1.3225168944405254 9.000000022351742 1.8202883871510949
v 1.8202883871510949 9.500000011175871 1.3225168944405254
v 1.3225168944405254 9.000000022351742 1.8202883871510949
v 1.8202883871510949 9.000000022351742 1.3225168944405254
v 1.8202883871510949 9.500000011175871 1.3225168944405254
v 1.8202883871510949 10.999999977648258 1.3225168944405254
v 1.8202883871510949 10.499999988824129 1.3225168944405254
v 2.139877251779126 10.999999977648258 0.6952882566169194
v 1.8202883871510949 10.499999988824129 1.3225168944405254
v 2.139877251779126 10.499999988824129 0.6952882566169194
v 2.139877251779126 10.999999977648258 0.6952882566169194
v 1.8202883871510949 10.499999988824129 1.3225168944405254
v 1.8202883871510949 10 1.3225168944405254
v 2.139877251779126 10.499999988824129 0.6952882566169194
v 1.8202883871510949 10 1.3225168944405254
v 2.139877251779126 10 0.6952882566169194
v 2.139877251779126 10.499999988824129 0.6952882566169194
v 1.8202883871510949 10 1.3225168944405254
v 1.8202883871510949 9.500000011175871 1.3225168944405254
v 2.139877251779126 10 0.6952882566169194
v 1.8202883871510949 9.500000011175871 1.3225168944405254
v 2.139877251779126 9.500000011175871 0.6952882566169194
v 2.139877251779126 10 0.6952882566169194
v 1.8202883871510949 9.500000011175871 1.3225168944405254
v 1.8202883871510949 9.000000022351742 1.3225168944405254
v 2.139877251779126 9.500000011175871 0.6952882566169194
v 1.8202883871510949 9.000000022351742 1.3225168944405254
v 2.139877251779126 9.000000022351742 0.6952882566169194
v 2.139877251779126 9.500000011175871 0.6952882566169194
v 2.139877251779126 10.999999977648258 0.6952882566169194
v 2.139877251779126 10.499999988824129 0.6952882566169194
v 2.250000089406967 10.999999977648258 1.3777276567016827e-16
v 2.139877251779126 10.499999988824129 0.6952882566169194
v 2.250000089406967 10.499999988824129 1.3777276567016827e-16
v 2.250000089406967 10.999999977648258 1.3777276567016827e-16
v 2.139877251779126 10.499999988824129 0.6952882566169194
v 2.139877251779126 10 0.6952882566169194
v 2.250000089406967 10.499999988824129 1.3777276567016827e-16
v 2.139877251779126 10 0.6952882566169194
v 2.250000089406967 10 1.3777276567016827e-16
v 2.250000089406967 10.499999988824129 1.3777276567016827e-16
v 2.139877251779126 10 0.6952882566169194
v 2.139877251779126 9.500000011175871 0.6952882566169194
v 2.250000089406967 10 1.3777276567016827e-16
v 2.139877251779126 9.500000011175871 0.6952882566169194
v 2.250000089406967 9.500000011175871 1.3777276567016827e-16
v 2.250000089406967 10 1.3777276567016827e-16
v 2.139877251779126 9.500000011175871 0.6952882566169194
v 2.139877251779126 9.000000022351742 0.6952882566169194
v 2.250000089406967 9.500000011175871 1.3777276567016827e-16
v 2.139877251779126 9.000000022351742 0.6952882566169194
v 2.250000089406967 9.000000022351742 1.3777276567016827e-16
v 2.250000089406967 9.500000011175871 1.3777276567016827e-16
v 0 10.999999977648258 2.250000089406967
v 0.6952882566169194 10.999999977648258 2.139877251779126
v 0 10.999999977648258 0
v 0.6952882566169194 10.999999977648258 2.139877251779126
v 1.3225168944405254 10.999999977648258 1.8202883871510949
v 0 10.999999977648258 0
v 1.3225168944405254 10.999999977648258 1.8202883871510949
v 1.8202883871510949 10.999999977648258 1.3225168944405254
v 0 10.999999977648258 0
v 1.8202883871510949 10.999999977648258 1.3225168944405254
v 2.139877251779126 10.999999977648258 0.6952882566169194
v 0 10.999999977648258 0
v 2.139877251779126 10.999999977648258 0.6952882566169194
v 2.250000089406967 10.999999977648258 1.3777276567016827e-16
v 0 10.999999977648258 0
v 0.6952882566169194 9.000000022351742 2.139877251779126
v 0 9.000000022351742 2.250000089406967
v 0 9.000000022351742 0
v 1.3225168944405254 9.000000022351742 1.8202883871510949
v 0.6952882566169194 9.000000022351742 2.139877251779126
v 0 9.000000022351742 0
v 1.8202883871510949 9.000000022351742 1.3225168944405254
v 1.3225168944405254 9.000000022351742 1.8202883871510949
v 0 9.000000022351742 0
v 2.139877251779126 9.000000022351742 0.6952882566169194
v 1.8202883871510949 9.000000022351742 1.3225168944405254
v 0 9.000000022351742 0
v 2.250000089406967 9.000000022351742 1.3777276567016827e-16
v 2.139877251779126 9.000000022351742 0.6952882566169194
v 0 9.000000022351742 0
v 0 10 -1.3777276567016827e-16
v 0 10.999999977648258 0
v 2.250000089406967 10.999999977648258 1.3777276567016827e-16
v 0 9.000000022351742 0
v 0 10 -1.3777276567016827e-16
v 2.250000089406967 10.999999977648258 1.3777276567016827e-16
v 0 9.000000022351742 0
v 2.250000089406967 10.999999977648258 1.3777276567016827e-16
v 2.250000089406967 9.000000022351742 1.3777276567016827e-16
v 0 9.000000022351742 0
v 0 9.000000022351742 2.250000089406967
v 0 10.999999977648258 2.250000089406967
v 0 9.000000022351742 0
v 0 10.999999977648258 2.250000089406967
v 0 10.999999977648258 0
vt 0 1
vt 0 0.75
vt 0.05000000074505806 1
vt 0 0.75
vt 0.05000000074505806 0.75
vt 0.05000000074505806 1
vt 0 0.75
vt 0 0.5
vt 0.05000000074505806 0.75
vt 0 0.5
vt 0.05000000074505806 0.5
vt 0.05000000074505806 0.75
vt 0 0.5
vt 0 0.25
vt 0.05000000074505806 0.5
vt 0 0.25
vt 0.05000000074505806 0.25
vt 0.05000000074505806 0.5
vt 0 0.25
vt 0 0
vt 0.05000000074505806 0.25
vt 0 0
vt 0.05000000074505806 0
vt 0.05000000074505806 0.25
vt 0.05000000074505806 1
vt 0.05000000074505806 0.75
vt 0.10000000149011612 1
vt 0.05000000074505806 0.75
vt 0.10000000149011612 0.75
vt 0.10000000149011612 1
vt 0.05000000074505806 0.75
vt 0.05000000074505806 0.5
vt 0.10000000149011612 0.75
vt 0.05000000074505806 0.5
vt 0.10000000149011612 0.5
vt 0.10000000149011612 0.75
vt 0.05000000074505806 0.5
vt 0.05000000074505806 0.25
vt 0.10000000149011612 0.5
vt 0.05000000074505806 0.25
vt 0.10000000149011612 0.25
vt 0.10000000149011612 0.5
vt 0.05000000074505806 0.25
vt 0.05000000074505806 0
vt 0.10000000149011612 0.25
vt 0.05000000074505806 0
vt 0.10000000149011612 0
vt 0.10000000149011612 0.25
vt 0.10000000149011612 1
vt 0.10000000149011612 0.75
vt 0.15000000596046448 1
vt 0.10000000149011612 0.75
vt 0.15000000596046448 0.75
vt 0.15000000596046448 1
vt 0.10000000149011612 0.75
vt 0.10000000149011612 0.5
vt 0.15000000596046448 0.75
vt 0.10000000149011612 0.5
vt 0.15000000596046448 0.5
vt 0.15000000596046448 0.75
vt 0.10000000149011612 0.5
vt 0.10000000149011612 0.25
vt 0.15000000596046448 0.5
vt 0.10000000149011612 0.25
vt 0.15000000596046448 0.25
vt 0.15000000596046448 0.5
vt 0.10000000149011612 0.25
vt 0.10000000149011612 0
vt 0.15000000596046448 0.25
vt 0.10000000149011612 0
vt 0.15000000596046448 0
vt 0.15000000596046448 0.25
vt 0.15000000596046448 1
vt 0.15000000596046448 0.75
vt 0.20000000298023224 1
vt 0.15000000596046448 0.75
vt 0.20000000298023224 0.75
vt 0.20000000298023224 1
vt 0.15000000596046448 0.75
vt 0.15000000596046448 0.5
vt 0.20000000298023224 0.75
vt 0.15000000596046448 0.5
vt 0.20000000298023224 0.5
vt 0.20000000298023224 0.75
vt 0.15000000596046448 0.5
vt 0.15000000596046448 0.25
vt 0.20000000298023224 0.5
vt 0.15000000596046448 0.25
vt 0.20000000298023224 0.25
vt 0.20000000298023224 0.5
vt 0.15000000596046448 0.25
vt 0.15000000596046448 0
vt 0.20000000298023224 0.25
vt 0.15000000596046448 0
vt 0.20000000298023224 0
vt 0.20000000298023224 0.25
vt 0.20000000298023224 1
vt 0.20000000298023224 0.75
vt 0.25 1
vt 0.20000000298023224 0.75
vt 0.25 0.75
vt 0.25 1
vt 0.20000000298023224 0.75
vt 0.20000000298023224 0.5
vt 0.25 0.75
vt 0.20000000298023224 0.5
vt 0.25 0.5
vt 0.25 0.75
vt 0.20000000298023224 0.5
vt 0.20000000298023224 0.25
vt 0.25 0.5
vt 0.20000000298023224 0.25
vt 0.25 0.25
vt 0.25 0.5
vt 0.20000000298023224 0.25
vt 0.20000000298023224 0
vt 0.25 0.25
vt 0.20000000298023224 0
vt 0.25 0
vt 0.25 0.25
vt 1 0.5
vt 0.9755282402038574 0.6545084714889526
vt 0.5 0.5
vt 0.9755282402038574 0.6545084714889526
vt 0.9045084714889526 0.7938926219940186
vt 0.5 0.5
vt 0.9045084714889526 0.7938926219940186
vt 0.7938926219940186 0.9045084714889526
vt 0.5 0.5
vt 0.7938926219940186 0.9045084714889526
vt 0.6545084714889526 0.9755282402038574
vt 0.5 0.5
vt 0.6545084714889526 0.9755282402038574
vt 0.5 1
vt 0.5 0.5
vt 0.9755282402038574 0.345491498708725
vt 1 0.5
vt 0.5 0.5
vt 0.9045084714889526 0.20610737800598145
vt 0.9755282402038574 0.345491498708725
vt 0.5 0.5
vt 0.7938926219940186 0.09549150615930557
vt 0.9045084714889526 0.20610737800598145
vt 0.5 0.5
vt 0.6545084714889526 0.024471741169691086
vt 0.7938926219940186 0.09549150615930557
vt 0.5 0.5
vt 0.5 0
vt 0.6545084714889526 0.024471741169691086
vt 0.5 0.5
vt 0.5 0.10000000149011612
vt 0.5 0.10999999940395355
vt 0.5224999785423279 0.10999999940395355
vt 0.5 0.09000000357627869
vt 0.5 0.10000000149011612
vt 0.5224999785423279 0.10999999940395355
vt 0.5 0.09000000357627869
vt 0.5224999785423279 0.10999999940395355
vt 0.5224999785423279 0.09000000357627869
vt 0.10000000149011612 0.6899999976158142
vt 0.07750000059604645 0.6899999976158142
vt 0.07750000059604645 0.7099999785423279
vt 0.10000000149011612 0.6899999976158142
vt 0.07750000059604645 0.7099999785423279
vt 0.10000000149011612 0.7099999785423279
vn 0 0 1.0000000015894557
vn 0 0 1.0000000015894557
vn 0.30901697837685305 0 0.9510565600257053
vn 0 0 1.0000000015894557
vn 0.30901697837685305 0 0.9510565600257053
vn 0.30901697837685305 0 0.9510565600257053
vn 0 0 1.0000000015894557
vn 0 0 1.0000000015894557
vn 0.30901697837685305 0 0.9510565600257053
vn 0 0 1.0000000015894557
vn 0.30901697837685305 0 0.9510565600257053
vn 0.30901697837685305 0 0.9510565600257053
vn 0 0 1.0000000015894557
vn 0 0 1.0000000015894557
vn 0.30901697837685305 0 0.9510565600257053
vn 0 0 1.0000000015894557
vn 0.30901697837685305 0 0.9510565600257053
vn 0.30901697837685305 0 0.9510565600257053
vn 0 0 1.0000000015894557
vn 0 0 1.0000000015894557
vn 0.30901697837685305 0 0.9510565600257053
vn 0 0 1.0000000015894557
vn 0.30901697837685305 0 0.9510565600257053
vn 0.30901697837685305 0 0.9510565600257053
vn 0.30901697837685305 0 0.9510565600257053
vn 0.30901697837685305 0 0.9510565600257053
vn 0.5877852629579223 0 0.8090170412597502
vn 0.30901697837685305 0 0.9510565600257053
vn 0.5877852629579223 0 0.8090170412597502
vn 0.5877852629579223 0 0.8090170412597502
vn 0.30901697837685305 0 0.9510565600257053
vn 0.30901697837685305 0 0.9510565600257053
vn 0.5877852629579223 0 0.8090170412597502
vn 0.30901697837685305 0 0.9510565600257053
vn 0.5877852629579223 0 0.8090170412597502
vn 0.5877852629579223 0 0.8090170412597502
vn 0.30901697837685305 0 0.9510565600257053
vn 0.30901697837685305 0 0.9510565600257053
vn 0.5877852629579223 0 0.8090170412597502
vn 0.30901697837685305 0 0.9510565600257053
vn 0.5877852629579223 0 0.8090170412597502
vn 0.5877852629579223 0 0.8090170412597502
vn 0.30901697837685305 0 0.9510565600257053
vn 0.30901697837685305 0 0.9510565600257053
vn 0.5877852629579223 0 0.8090170412597502
vn 0.30901697837685305 0 0.9510565600257053
vn 0.5877852629579223 0 0.8090170412597502
vn 0.5877852629579223 0 0.8090170412597502
vn 0.5877852629579223 0 0.8090170412597502
vn 0.5877852629579223 0 0.8090170412597502
vn 0.8090170412597502 0 0.5877852629579223
vn 0.5877852629579223 0 0.8090170412597502
vn 0.8090170412597502 0 0.5877852629579223
vn 0.8090170412597502 0 0.5877852629579223
vn 0.5877852629579223 0 0.8090170412597502
vn 0.5877852629579223 0 0.8090170412597502
vn 0.8090170412597502 0 0.5877852629579223
vn 0.5877852629579223 0 0.8090170412597502
vn 0.8090170412597502 0 0.5877852629579223
vn 0.8090170412597502 0 0.5877852629579223
vn 0.5877852629579223 0 0.8090170412597502
vn 0.5877852629579223 0 0.8090170412597502
vn 0.8090170412597502 0 0.5877852629579223
vn 0.5877852629579223 0 0.8090170412597502
vn 0.8090170412597502 0 0.5877852629579223
vn 0.8090170412597502 0 0.5877852629579223
vn 0.5877852629579223 0 0.8090170412597502
vn 0.5877852629579223 0 0.8090170412597502
vn 0.8090170412597502 0 0.5877852629579223
vn 0.5877852629579223 0 0.8090170412597502
vn 0.8090170412597502 0 0.5877852629579223
vn 0.8090170412597502 0 0.5877852629579223
vn 0.8090170412597502 0 0.5877852629579223
vn 0.8090170412597502 0 0.5877852629579223
vn 0.9510565600257053 0 0.30901697837685305
vn 0.8090170412597502 0 0.5877852629579223
vn 0.9510565600257053 0 0.30901697837685305
vn 0.9510565600257053 0 0.30901697837685305
vn 0.8090170412597502 0 0.5877852629579223
vn 0.8090170412597502 0 0.5877852629579223
vn 0.9510565600257053 0 0.30901697837685305
vn 0.8090170412597502 0 0.5877852629579223
vn 0.9510565600257053 0 0.30901697837685305
vn 0.9510565600257053 0 0.30901697837685305
vn 0.8090170412597502 0 0.5877852629579223
vn 0.8090170412597502 0 0.5877852629579223
vn 0.9510565600257053 0 0.30901697837685305
vn 0.8090170412597502 0 0.5877852629579223
vn 0.9510565600257053 0 0.30901697837685305
vn 0.9510565600257053 0 0.30901697837685305
vn 0.8090170412597502 0 0.5877852629579223
vn 0.8090170412597502 0 0.5877852629579223
vn 0.9510565600257053 0 0.30901697837685305
vn 0.8090170412597502 0 0.5877852629579223
vn 0.9510565600257053 0 0.30901697837685305
vn 0.9510565600257053 0 0.30901697837685305
vn 0.9510565600257053 0 0.30901697837685305
vn 0.9510565600257053 0 0.30901697837685305
vn 1.0000000015894557 0 6.123234121251943e-17
vn 0.9510565600257053 0 0.30901697837685305
vn 1.0000000015894557 0 6.123234121251943e-17
vn 1.0000000015894557 0 6.123234121251943e-17
vn 0.9510565600257053 0 0.30901697837685305
vn 0.9510565600257053 0 0.30901697837685305
vn 1.0000000015894557 0 6.123234121251943e-17
vn 0.9510565600257053 0 0.30901697837685305
vn 1.0000000015894557 0 6.123234121251943e-17
vn 1.0000000015894557 0 6.123234121251943e-17
vn 0.9510565600257053 0 0.30901697837685305
vn 0.9510565600257053 0 0.30901697837685305
vn 1.0000000015894557 0 6.123234121251943e-17
vn 0.9510565600257053 0 0.30901697837685305
vn 1.0000000015894557 0 6.123234121251943e-17
vn 1.0000000015894557 0 6.123234121251943e-17
vn 0.9510565600257053 0 0.30901697837685305
vn 0.9510565600257053 0 0.30901697837685305
vn 1.0000000015894557 0 6.123234121251943e-17
vn 0.9510565600257053 0 0.30901697837685305
vn 1.0000000015894557 0 6.123234121251943e-17
vn 1.0000000015894557 0 6.123234121251943e-17
vn 0 0.9999999776482582 0
vn 0 0.9999999776482582 0
vn 0 0.9999999776482582 0
vn 0 0.9999999776482582 0
vn 0 0.9999999776482582 0
vn 0 0.9999999776482582 0
vn 0 0.9999999776482582 0
vn 0 0.9999999776482582 0
vn 0 0.9999999776482582 0
vn 0 0.9999999776482582 0
vn 0 0.9999999776482582 0
vn 0 0.9999999776482582 0
vn 0 0.9999999776482582 0
vn 0 0.9999999776482582 0
vn 0 0.9999999776482582 0
vn 0 -0.9999999776482582 0
vn 0 -0.9999999776482582 0
vn 0 -0.9999999776482582 0
vn 0 -0.9999999776482582 0
vn 0 -0.9999999776482582 0
vn 0 -0.9999999776482582 0
vn 0 -0.9999999776482582 0
vn 0 -0.9999999776482582 0
vn 0 -0.9999999776482582 0
vn 0 -0.9999999776482582 0
vn 0 -0.9999999776482582 0
vn 0 -0.9999999776482582 0
vn 0 -0.9999999776482582 0
vn 0 -0.9999999776482582 0
vn 0 -0.9999999776482582 0
vn 0 0 -1.0000000015894557
vn 0 0 -1.0000000015894557
vn 0 0 -1.0000000015894557
vn 0 0 -1.0000000015894557
vn 0 0 -1.0000000015894557
vn 0 0 -1.0000000015894557
vn 0 0 -1.0000000015894557
vn 0 0 -1.0000000015894557
vn 0 0 -1.0000000015894557
vn -1.0000000015894557 0 0
vn -1.0000000015894557 0 0
vn -1.0000000015894557 0 0
vn -1.0000000015894557 0 0
vn -1.0000000015894557 0 0
vn -1.0000000015894557 0 0
f 1/1/1 2/2/2 3/3/3
f 4/4/4 5/5/5 6/6/6
f 7/7/7 8/8/8 9/9/9
f 10/10/10 11/11/11 12/12/12
f 13/13/13 14/14/14 15/15/15
f 16/16/16 17/17/17 18/18/18
f 19/19/19 20/20/20 21/21/21
f 22/22/22 23/23/23 24/24/24
f 25/25/25 26/26/26 27/27/27
f 28/28/28 29/29/29 30/30/30
f 31/31/31 32/32/32 33/33/33
f 34/34/34 35/35/35 36/36/36
f 37/37/37 38/38/38 39/39/39
f 40/40/40 41/41/41 42/42/42
f 43/43/43 44/44/44 45/45/45
f 46/46/46 47/47/47 48/48/48
f 49/49/49 50/50/50 51/51/51
f 52/52/52 53/53/53 54/54/54
f 55/55/55 56/56/56 57/57/57
f 58/58/58 59/59/59 60/60/60
f 61/61/61 62/62/62 63/63/63
f 64/64/64 65/65/65 66/66/66
f 67/67/67 68/68/68 69/69/69
f 70/70/70 71/71/71 72/72/72
f 73/73/73 74/74/74 75/75/75
f 76/76/76 77/77/77 78/78/78
f 79/79/79 80/80/80 81/81/81
f 82/82/82 83/83/83 84/84/84
f 85/85/85 86/86/86 87/87/87
f 88/88/88 89/89/89 90/90/90
f 91/91/91 92/92/92 93/93/93
f 94/94/94 95/95/95 96/96/96
f 97/97/97 98/98/98 99/99/99
f 100/100/100 101/101/101 102/102/102
f 103/103/103 104/104/104 105/105/105
f 106/106/106 107/107/107 108/108/108
f 109/109/109 110/110/110 111/111/111
f 112/112/112 113/113/113 114/114/114
f 115/115/115 116/116/116 117/117/117
f 118/118/118 119/119/119 120/120/120
f 121/121/121 122/122/122 123/123/123
f 124/124/124 125/125/125 126/126/126
f 127/127/127 128/128/128 129/129/129
f 130/130/130 131/131/131 132/132/132
f 133/133/133 134/134/134 135/135/135
f 136/136/136 137/137/137 138/138/138
f 139/139/139 140/140/140 141/141/141
f 142/142/142 143/143/143 144/144/144
f 145/145/145 146/146/146 147/147/147
f 148/148/148 149/149/149 150/150/150
f 151/151/151 152/152/152 153/153/153
f 154/154/154 155/155/155 156/156/156
f 157/157/157 158/158/158 159/159/159
f 160/160/160 161/161/161 162/162/162
f 163/163/163 164/164/164 165/165/165
